<?xml version="1.0" standalone="no"?>
<!DOCTYPE svg PUBLIC "-//W3C//DTD SVG 20010904//EN"
 "http://www.w3.org/TR/2001/REC-SVG-20010904/DTD/svg10.dtd">
<svg version="1.0" xmlns="http://www.w3.org/2000/svg"
 width="1526.000000pt" height="1526.000000pt" viewBox="0 0 1526.000000 1526.000000"
 preserveAspectRatio="xMidYMid meet">

<g transform="translate(0.000000,1526.000000) scale(0.100000,-0.100000)"
fill="#0095E8" stroke="none">
<path d="M7320 12385 l0 -2855 315 0 315 0 0 2855 0 2855 -315 0 -315 0 0
-2855z"/>
<path d="M6480 14181 c-1949 -347 -3634 -1534 -4628 -3261 -325 -565 -576
-1213 -716 -1849 -38 -173 -86 -432 -86 -468 l0 -23 318 0 317 0 18 103 c134
785 483 1642 945 2317 923 1349 2308 2253 3910 2550 l122 23 0 318 0 319 -22
-1 c-13 0 -93 -13 -178 -28z"/>
<path d="M8590 13892 l0 -320 98 -17 c2006 -351 3730 -1734 4515 -3625 158
-382 282 -797 353 -1180 14 -80 28 -151 30 -157 3 -10 76 -13 324 -13 l320 0
-5 23 c-2 12 -14 78 -25 147 -265 1588 -1142 3067 -2422 4083 -759 602 -1612
1022 -2543 1253 -171 42 -479 104 -592 119 l-53 7 0 -320z"/>
<path d="M6530 10931 c-385 -130 -711 -306 -1050 -567 -148 -114 -470 -436
-584 -584 -279 -362 -481 -748 -600 -1149 l-15 -51 333 0 333 0 32 84 c109
287 306 606 534 864 276 312 679 594 1070 747 l97 38 0 334 c0 183 -1 333 -2
333 -2 0 -68 -22 -148 -49z"/>
<path d="M8590 10647 l0 -333 98 -38 c142 -56 381 -181 516 -270 474 -313 849
-766 1067 -1286 l56 -135 332 -3 331 -2 -6 27 c-17 70 -102 301 -156 423 -398
902 -1164 1596 -2107 1909 -67 23 -125 41 -127 41 -2 0 -4 -150 -4 -333z"/>
<path d="M7535 8570 c-348 -37 -659 -276 -785 -602 -46 -118 -62 -208 -62
-343 0 -274 105 -516 301 -698 117 -108 254 -183 409 -224 82 -22 118 -26 237
-26 98 -1 160 4 207 16 292 72 509 249 639 520 67 140 82 217 83 407 1 143 -2
176 -22 249 -49 180 -135 324 -270 452 -151 144 -332 227 -542 248 -56 6 -107
10 -114 10 -6 -1 -43 -5 -81 -9z"/>
<path d="M20 7625 l0 -315 2855 0 2855 0 0 315 0 315 -2855 0 -2855 0 0 -315z"/>
<path d="M9540 7625 l0 -315 2860 0 2860 0 0 315 0 315 -2860 0 -2860 0 0
-315z"/>
<path d="M1050 6647 c0 -31 44 -280 75 -424 172 -799 512 -1601 971 -2290 571
-857 1358 -1589 2254 -2098 716 -407 1472 -669 2308 -799 l22 -3 0 321 0 322
-77 13 c-150 24 -448 93 -635 147 -818 234 -1583 648 -2254 1218 -180 153
-536 512 -685 691 -682 820 -1134 1772 -1315 2767 l-29 158 -317 0 -318 0 0
-23z"/>
<path d="M4280 6666 c0 -13 103 -306 134 -379 379 -912 1150 -1638 2081 -1959
72 -25 142 -48 158 -52 l27 -6 0 332 0 333 -88 34 c-123 47 -339 156 -460 232
-516 321 -934 820 -1148 1369 l-39 100 -332 0 c-183 0 -333 -2 -333 -4z"/>
<path d="M10306 6618 c-37 -105 -130 -301 -201 -423 -320 -548 -808 -973
-1393 -1215 l-117 -49 -3 -330 c-1 -186 2 -331 7 -331 20 0 304 102 405 145
451 193 880 498 1209 860 261 287 483 632 632 981 43 101 145 385 145 405 0 5
-150 9 -333 9 l-332 0 -19 -52z"/>
<path d="M13580 6648 c0 -13 -16 -102 -35 -198 -296 -1469 -1106 -2751 -2310
-3655 -724 -544 -1602 -931 -2475 -1091 -80 -14 -151 -28 -157 -30 -10 -3 -13
-76 -13 -324 l0 -320 23 4 c12 3 54 10 92 16 329 50 734 152 1082 271 2082
712 3693 2427 4273 4550 55 199 109 443 140 629 11 69 23 135 25 148 l5 22
-325 0 -325 0 0 -22z"/>
<path d="M7320 2860 l0 -2860 315 0 315 0 0 2860 0 2860 -315 0 -315 0 0
-2860z"/>
</g>
</svg>
