<?xml version="1.0" standalone="no"?>
<!DOCTYPE svg PUBLIC "-//W3C//DTD SVG 20010904//EN"
 "http://www.w3.org/TR/2001/REC-SVG-20010904/DTD/svg10.dtd">
<svg version="1.0" xmlns="http://www.w3.org/2000/svg"
 width="512.000000pt" height="512.000000pt" viewBox="0 0 512.000000 512.000000"
 preserveAspectRatio="xMidYMid meet">

<g transform="translate(0.000000,512.000000) scale(0.100000,-0.100000)"
fill="#0095E8" stroke="none">
<path d="M132 5109 c-45 -13 -108 -80 -121 -126 -8 -26 -11 -722 -11 -2244 0
-2164 0 -2207 20 -2283 29 -113 73 -190 160 -277 53 -54 96 -86 147 -112 147
-73 -33 -68 2439 -65 l2220 3 41 27 c63 41 88 90 88 169 0 54 -5 72 -27 106
-15 22 -44 51 -65 64 l-38 24 -2226 5 -2225 5 -41 27 c-22 15 -51 44 -64 65
l-24 38 -5 2225 -5 2225 -24 38 c-47 76 -151 113 -239 86z"/>
<path d="M3615 4131 c-174 -38 -333 -151 -408 -290 -14 -25 -132 -302 -262
-616 -130 -313 -248 -584 -261 -601 -51 -68 -162 -93 -239 -54 -21 11 -74 58
-117 104 -142 153 -276 217 -457 217 -150 0 -262 -37 -376 -124 -60 -45 -130
-130 -165 -197 -10 -19 -141 -377 -291 -795 -246 -682 -274 -766 -274 -821 0
-49 5 -69 27 -101 41 -62 90 -88 168 -88 73 0 124 24 160 74 10 16 137 356
281 757 274 765 289 807 317 837 52 57 175 76 240 37 19 -12 71 -60 117 -108
89 -94 157 -140 263 -180 58 -22 84 -26 187 -26 133 -1 179 10 297 71 88 46
185 143 231 231 19 37 137 315 262 617 125 303 240 566 254 585 34 44 103 80
153 80 71 0 111 -26 219 -141 56 -61 114 -116 128 -124 159 -82 345 87 276
251 -24 57 -207 256 -283 308 -96 66 -193 97 -312 102 -52 2 -113 -1 -135 -5z"/>
</g>
</svg>
