<?xml version="1.0" standalone="no"?>
<!DOCTYPE svg PUBLIC "-//W3C//DTD SVG 20010904//EN"
 "http://www.w3.org/TR/2001/REC-SVG-20010904/DTD/svg10.dtd">
<svg version="1.0" xmlns="http://www.w3.org/2000/svg"
 width="376.000000pt" height="376.000000pt" viewBox="0 0 376.000000 376.000000"
 preserveAspectRatio="xMidYMid meet">

<g transform="translate(0.000000,376.000000) scale(0.100000,-0.100000)"
fill="#0095E8" stroke="none">
<path d="M1824 3509 c-18 -20 -19 -46 -19 -651 l0 -630 28 -24 c35 -30 59 -30
94 0 l28 24 0 630 c0 605 -1 631 -19 651 -13 14 -31 21 -56 21 -25 0 -43 -7
-56 -21z"/>
<path d="M285 1953 c-56 -14 -76 -91 -34 -129 20 -18 46 -19 651 -19 l630 0
24 28 c30 35 30 59 0 94 l-24 28 -614 1 c-337 1 -622 0 -633 -3z"/>
<path d="M2230 1947 c-13 -7 -31 -25 -40 -40 -13 -24 -13 -30 0 -54 30 -54 17
-53 681 -51 591 3 618 4 638 22 29 26 29 86 0 112 -20 18 -47 19 -638 22 -481
1 -621 -1 -641 -11z"/>
<path d="M1827 1932 c-23 -25 -22 -85 1 -105 25 -23 85 -22 105 1 23 25 22 85
-1 105 -25 23 -85 22 -105 -1z"/>
<path d="M1833 1556 l-28 -24 0 -630 c0 -605 1 -631 19 -651 26 -29 86 -29
112 0 18 20 19 46 19 651 l0 630 -28 24 c-15 13 -37 24 -47 24 -10 0 -32 -11
-47 -24z"/>
</g>
</svg>
