<?xml version="1.0" standalone="no"?>
<!DOCTYPE svg PUBLIC "-//W3C//DTD SVG 20010904//EN"
 "http://www.w3.org/TR/2001/REC-SVG-20010904/DTD/svg10.dtd">
<svg version="1.0" xmlns="http://www.w3.org/2000/svg"
 width="512.000000pt" height="512.000000pt" viewBox="0 0 512.000000 512.000000"
 preserveAspectRatio="xMidYMid meet">

<g transform="translate(0.000000,512.000000) scale(0.100000,-0.100000)"
fill="#15C396" stroke="none">
<path d="M349 5097 c-55 -47 -54 -43 -59 -321 l-5 -261 -100 -5 c-149 -8 -185
-39 -185 -160 0 -121 36 -152 185 -160 l100 -5 0 -135 0 -135 -100 -5 c-149
-8 -185 -39 -185 -160 0 -121 36 -152 185 -160 l100 -5 0 -135 0 -135 -100 -5
c-149 -8 -185 -39 -185 -160 0 -121 36 -152 185 -160 l100 -5 0 -135 0 -135
-100 -5 c-149 -8 -185 -39 -185 -160 0 -121 36 -152 185 -160 l100 -5 0 -135
0 -135 -100 -5 c-149 -8 -185 -39 -185 -160 0 -121 36 -152 185 -160 l100 -5
0 -135 0 -135 -100 -5 c-149 -8 -185 -39 -185 -160 0 -121 36 -152 185 -160
l100 -5 0 -135 0 -135 -100 -5 c-149 -8 -185 -39 -185 -160 0 -121 36 -152
185 -160 l100 -5 0 -135 0 -135 -100 -5 c-151 -8 -185 -38 -185 -164 0 -73 1
-77 35 -111 l36 -35 2489 0 2489 0 36 35 c34 34 35 38 35 111 0 81 -12 109
-58 141 -24 16 -57 19 -282 23 l-255 5 -5 101 c-6 111 -18 141 -73 174 -43 27
-131 27 -174 0 -55 -33 -67 -63 -73 -174 l-5 -101 -285 0 -285 0 -5 101 c-6
111 -18 141 -73 174 -43 27 -131 27 -174 0 -55 -33 -67 -63 -73 -174 l-5 -101
-285 0 -285 0 -5 101 c-6 111 -18 141 -73 174 -43 27 -131 27 -174 0 -55 -33
-67 -63 -73 -174 l-5 -101 -285 0 -285 0 -5 101 c-6 111 -18 141 -73 174 -43
27 -131 27 -174 0 -55 -33 -67 -63 -73 -174 l-5 -101 -440 0 -440 0 0 435 0
435 106 5 c116 6 145 17 179 73 27 43 27 131 0 174 -34 56 -63 67 -179 73
l-106 5 0 285 0 285 107 5 c87 4 112 9 135 26 83 61 83 207 0 268 -23 17 -48
22 -135 26 l-107 5 0 285 0 285 107 5 c120 6 149 19 180 81 36 70 15 169 -45
213 -23 17 -48 22 -135 26 l-107 5 0 285 0 285 107 5 c87 4 112 9 135 26 83
61 83 207 0 268 -23 17 -48 22 -135 26 l-107 5 -5 410 c-5 375 -7 412 -23 437
-32 46 -60 58 -139 58 -61 0 -77 -4 -99 -23z"/>
<path d="M4218 4491 c-77 -25 -148 -72 -204 -134 -86 -96 -119 -192 -112 -331
8 -148 62 -253 178 -345 131 -104 343 -121 501 -40 56 28 152 121 181 176 64
118 76 284 30 403 -43 111 -151 219 -259 261 -82 31 -235 37 -315 10z"/>
<path d="M1281 4192 c-58 -29 -76 -63 -76 -142 0 -79 18 -113 76 -142 29 -15
63 -18 229 -18 166 0 200 3 229 18 58 29 76 63 76 142 0 79 -18 113 -76 142
-29 15 -63 18 -229 18 -166 0 -200 -3 -229 -18z"/>
<path d="M2181 4192 c-58 -29 -76 -63 -76 -142 0 -79 18 -113 76 -142 29 -15
63 -18 229 -18 166 0 200 3 229 18 58 29 76 63 76 142 0 79 -18 113 -76 142
-29 15 -63 18 -229 18 -166 0 -200 -3 -229 -18z"/>
<path d="M3081 4192 c-58 -29 -76 -63 -76 -142 0 -79 18 -113 76 -142 29 -15
63 -18 229 -18 166 0 200 3 229 18 58 29 76 63 76 142 0 79 -18 113 -76 142
-51 26 -407 26 -458 0z"/>
<path d="M3318 3591 c-31 -10 -76 -30 -100 -44 -54 -31 -139 -120 -166 -173
-73 -144 -69 -330 11 -467 31 -52 124 -140 176 -166 140 -72 329 -67 463 12
54 31 139 120 166 173 69 136 69 312 0 448 -27 53 -112 142 -166 173 -107 63
-267 81 -384 44z"/>
<path d="M1281 3292 c-58 -29 -76 -63 -76 -142 0 -79 18 -113 76 -142 29 -15
63 -18 229 -18 166 0 200 3 229 18 58 29 76 63 76 142 0 79 -18 113 -76 142
-29 15 -63 18 -229 18 -166 0 -200 -3 -229 -18z"/>
<path d="M2181 3292 c-58 -29 -76 -63 -76 -142 0 -79 18 -113 76 -142 29 -15
63 -18 229 -18 166 0 200 3 229 18 58 29 76 63 76 142 0 79 -18 113 -76 142
-29 15 -63 18 -229 18 -166 0 -200 -3 -229 -18z"/>
<path d="M4281 3293 c-72 -38 -76 -50 -79 -281 -2 -182 0 -211 15 -241 30 -58
64 -76 143 -76 79 0 113 18 142 76 15 29 18 63 18 229 0 214 -6 243 -62 284
-39 28 -132 33 -177 9z"/>
<path d="M2418 2691 c-31 -10 -76 -30 -100 -44 -54 -31 -139 -120 -166 -173
-69 -136 -69 -312 0 -448 27 -53 112 -142 166 -173 142 -84 342 -84 484 0 54
31 139 120 166 173 69 136 69 312 0 448 -27 53 -112 142 -166 173 -107 63
-267 81 -384 44z"/>
<path d="M1281 2392 c-58 -29 -76 -63 -76 -142 0 -79 18 -113 76 -142 29 -15
63 -18 229 -18 166 0 200 3 229 18 58 29 76 63 76 142 0 79 -18 113 -76 142
-29 15 -63 18 -229 18 -166 0 -200 -3 -229 -18z"/>
<path d="M3381 2393 c-72 -38 -76 -50 -79 -281 -2 -182 0 -211 15 -241 30 -58
64 -76 143 -76 79 0 113 18 142 76 15 29 18 63 18 229 0 214 -6 243 -62 284
-39 28 -132 33 -177 9z"/>
<path d="M4281 2393 c-72 -38 -76 -50 -79 -281 -2 -182 0 -211 15 -241 30 -58
64 -76 143 -76 79 0 113 18 142 76 15 29 18 63 18 229 0 214 -6 243 -62 284
-39 28 -132 33 -177 9z"/>
<path d="M1518 1791 c-31 -10 -76 -30 -100 -44 -54 -31 -139 -120 -166 -173
-69 -136 -69 -312 0 -448 27 -53 112 -142 166 -173 142 -84 342 -84 484 0 54
31 139 120 166 173 69 136 69 312 0 448 -27 53 -112 142 -166 173 -107 63
-267 81 -384 44z"/>
<path d="M2472 1490 c-67 -41 -72 -61 -72 -290 0 -229 5 -249 72 -290 45 -27
131 -27 176 0 67 41 72 61 72 290 0 229 -5 249 -72 290 -45 27 -131 27 -176 0z"/>
<path d="M3372 1490 c-67 -41 -72 -61 -72 -290 0 -229 5 -249 72 -290 45 -27
131 -27 176 0 67 41 72 61 72 290 0 229 -5 249 -72 290 -45 27 -131 27 -176 0z"/>
<path d="M4272 1490 c-67 -41 -72 -61 -72 -290 0 -229 5 -249 72 -290 45 -27
131 -27 176 0 67 41 72 61 72 290 0 229 -5 249 -72 290 -45 27 -131 27 -176 0z"/>
</g>
</svg>
