<?xml version="1.0" encoding="UTF-8"?>
<svg id="Layer_1" data-name="Layer 1" xmlns="http://www.w3.org/2000/svg" viewBox="0 0 1080 1080">
  <defs>
    <style>
      .cls-1 {
        fill: #654cf0;
      }

      .cls-2 {
        fill: #2c3383;
      }
    </style>
  </defs>
  <path class="cls-2" d="M345.6,537.01v11.46h-24v64.21h-12.75v-64.21h-23.89v-11.46h60.64Z"/>
  <path class="cls-2" d="M403.86,555.17v57.51h-12.43v-11.24c-3.89,8-11.13,11.57-20.54,11.67-13.19,0-21.08-8.43-21.08-22.16v-35.78h12.43v32.32c0,8.65,5.08,13.94,13.4,13.94,9.94-.22,15.78-7.89,15.78-17.94v-28.32h12.43Z"/>
  <path class="cls-2" d="M454.56,554.74v11.89c-11.57-.65-18.92,6.16-19.89,16v30.05h-12.43v-57.51h12.43v11.46c3.89-7.78,10.81-11.89,19.89-11.89Z"/>
  <path class="cls-2" d="M478.23,538.74c0,4.22-3.13,7.35-7.24,7.35s-7.24-3.13-7.24-7.35,3.13-7.46,7.24-7.46,7.24,3.13,7.24,7.46Zm-1.08,16.43v57.51h-12.32v-57.51h12.32Z"/>
  <path class="cls-2" d="M550.54,576.9v35.78h-12.43v-32.32c0-8.65-5.19-13.94-13.84-13.94-9.51,.11-15.46,6.7-16.32,15.67v30.59h-12.43v-57.51h12.43v11.03c4.11-8,11.46-11.46,21.19-11.46,13.4,0,21.4,8.43,21.4,22.16Z"/>
  <path class="cls-2" d="M619.07,555.17v51.88c0,16.54-11.78,26.92-29.83,26.92-8.97,0-16.86-2.81-23.89-7.57l5.3-8.97c5.41,4,11.03,6.27,18.05,6.27,10.92,0,18.05-6.38,18.05-16.32v-7.24c-3.89,6.27-10.38,9.73-19.02,9.73-15.57,0-25.94-11.24-25.94-27.78s10.27-27.24,25.51-27.35c8.86-.11,15.46,3.46,19.46,9.73v-9.3h12.32Zm-12.32,27.24c0-10.38-6.81-17.62-16.54-17.62s-16.65,7.35-16.75,17.62c.11,10.38,6.81,17.73,16.75,17.73s16.54-7.35,16.54-17.73Z"/>
  <path class="cls-1" d="M645.55,537.01l18.48,26.27,18.59-26.27h14.92l-25.4,36.32,27.56,39.35h-15.24l-20.43-28.54-20.32,28.54h-14.92l27.56-38.81-25.62-36.86h14.81Z"/>
  <path class="cls-1" d="M745.64,612.68v-7.03c-4.11,5.08-10.7,7.57-19.02,7.57-12.43,0-20.21-7.67-20.21-17.83s7.89-17.19,21.73-17.29h17.4v-1.73c0-7.24-4.65-11.57-13.73-11.57-5.51,0-11.24,1.95-16.97,5.84l-5.08-8.65c8-4.76,13.84-7.24,24.75-7.24,14.81,0,23.13,7.57,23.24,20.21l.11,37.72h-12.21Zm-.11-20.21v-5.3h-15.57c-8.11,0-11.89,2.16-11.89,7.67,0,5.19,4.22,8.54,11.13,8.54,8.86,0,15.67-4.65,16.32-10.92Z"/>
  <path class="cls-1" d="M787.9,538.74c0,4.22-3.13,7.35-7.24,7.35s-7.24-3.13-7.24-7.35,3.13-7.46,7.24-7.46,7.24,3.13,7.24,7.46Zm-1.08,16.43v57.51h-12.32v-57.51h12.32Z"/>
</svg>